# xmcd
#
# Track frame offsets:
#	150
#	19785
#	43407
#	63272
#	82475
#	102757
#	119607
#	139525
#	163127
#	182420
#
# Disc length: 2659 seconds
#
# Revision: 3
# Processed by: cddbd v1.5.2PL0 Copyright (c) Steve Scherf et al.
# Submitted via: EasyCDDAExtractor 12.0.1.1
#
DISCID=8a0a610a
DTITLE=Millie - Emociones
DYEAR=1997
DGENRE=Latin
TTITLE0=Amame
TTITLE1=El Juego Del Amor
TTITLE2=Me Equivoque
TTITLE3=Emociones
TTITLE4=Mi Historia Tu Seras (You Are The Story Of My Life)
TTITLE5=Asi Soy Yo
TTITLE6=Perverso Amor
TTITLE7=Yo Te Amare
TTITLE8=En Silencio
TTITLE9=Fiebre
EXTD=
EXTT0=
EXTT1=
EXTT2=
EXTT3=
EXTT4=
EXTT5=
EXTT6=
EXTT7=
EXTT8=
EXTT9=
PLAYORDER=
